# xmcd
#
# Track frame offsets: 
#        150
#        16105
#        36494
#        57648
#        80425
#        101848
#        123120
#        148031
#        166794
#        186798
#
# Disc length: 2844 seconds
#
# Revision: 0
# Processed by: cddbd v1.5.2PL0 Copyright (c) Steve Scherf et al.
# Submitted via: ExactAudioCopy v1.0b1
#
DISCID=820b1a0a
DTITLE=Chris Daniels and The KINGS  - 10
DYEAR=2005
DGENRE=Funky Blues
TTITLE0=Howlin' At The Moon
TTITLE1=Killing Floor
TTITLE2=White Hot Lightning
TTITLE3=Soul Mine
TTITLE4=Bluz Cruz
TTITLE5=Who's Makin Love
TTITLE6=Come On Sit Down In My Kitchen
TTITLE7=Gimme What You Got
TTITLE8=It's All Good
TTITLE9=Crossline
EXTD=
EXTT0=
EXTT1=
EXTT2=
EXTT3=
EXTT4=
EXTT5=
EXTT6=
EXTT7=
EXTT8=
EXTT9=
PLAYORDER=
